<svg width="120" height="40" viewBox="0 0 120 40" fill="none" xmlns="http://www.w3.org/2000/svg">
  <path d="M20 8H100C104.418 8 108 11.5817 108 16V24C108 28.4183 104.418 32 100 32H20C15.5817 32 12 28.4183 12 24V16C12 11.5817 15.5817 8 20 8Z" fill="#F5F5F5"/>
  <path d="M31.5 14L24.5 26H27.5L34.5 14H31.5Z" fill="#666666"/>
  <path d="M36.5 14L29.5 26H32.5L39.5 14H36.5Z" fill="#666666"/>
  <path d="M44 14H47V20H53V14H56V26H53V22H47V26H44V14Z" fill="#666666"/>
  <path d="M65 17H61V14H72V17H68V26H65V17Z" fill="#666666"/>
  <path d="M73 14H79C83 14 86 17 86 20C86 23 83 26 79 26H73V14ZM76 23H79C81.5 23 83 21.5 83 20C83 18.5 81.5 17 79 17H76V23Z" fill="#666666"/>
  <path d="M90 14H93V20L98 14H102L96 21L102 26H98L93 21V26H90V14Z" fill="#666666"/>
</svg>

