<svg width="120" height="40" viewBox="0 0 120 40" fill="none" xmlns="http://www.w3.org/2000/svg">
  <path d="M20 8H100C104.418 8 108 11.5817 108 16V24C108 28.4183 104.418 32 100 32H20C15.5817 32 12 28.4183 12 24V16C12 11.5817 15.5817 8 20 8Z" fill="#F5F5F5"/>
  <path d="M26 14H29L35 26H32L30.5 23H24.5L23 26H20L26 14ZM29.5 20L27.5 16.5L25.5 20H29.5Z" fill="#666666"/>
  <path d="M36 14H39V26H36V14Z" fill="#666666"/>
  <path d="M42 14H45V26H42V14Z" fill="#666666"/>
  <path d="M48 14H51V20H57V14H60V26H57V22H51V26H48V14Z" fill="#666666"/>
  <path d="M62 14H65V23H71V26H62V14Z" fill="#666666"/>
  <path d="M72 14H75V17H78V14H81V17H84V14H87V26H84V19H81V26H78V19H75V26H72V14Z" fill="#666666"/>
</svg>

