<svg width="120" height="40" viewBox="0 0 120 40" fill="none" xmlns="http://www.w3.org/2000/svg">
  <path d="M20 8H100C104.418 8 108 11.5817 108 16V24C108 28.4183 104.418 32 100 32H20C15.5817 32 12 28.4183 12 24V16C12 11.5817 15.5817 8 20 8Z" fill="#F5F5F5"/>
  <path d="M28 14H31V23H37V26H28V14Z" fill="#666666"/>
  <path d="M43 14H46L52 26H49L47.5 23H41.5L40 26H37L43 14ZM46.5 20L44.5 16.5L42.5 20H46.5Z" fill="#666666"/>
  <path d="M53 14H64V17H59V26H56V17H53V14Z" fill="#666666"/>
  <path d="M65 14H68V26H65V14Z" fill="#666666"/>
  <path d="M76 17H72V14H83V17H79V26H76V17Z" fill="#666666"/>
  <path d="M84 14H87V26H84V14Z" fill="#666666"/>
  <path d="M89 14H92V22L95 14H98L95 22L99 26H96L93 22.5V26H90V22.5L87 26H84L88 22L85 14H88L89 22V14Z" fill="#666666"/>
</svg>

