<svg width="120" height="40" viewBox="0 0 120 40" fill="none" xmlns="http://www.w3.org/2000/svg">
  <path d="M20 8H100C104.418 8 108 11.5817 108 16V24C108 28.4183 104.418 32 100 32H20C15.5817 32 12 28.4183 12 24V16C12 11.5817 15.5817 8 20 8Z" fill="#F5F5F5"/>
  <path d="M22 20C22 16.6863 24.6863 14 28 14H37V17H28C26.3431 17 25 18.3431 25 20C25 21.6569 26.3431 23 28 23H37V26H28C24.6863 26 22 23.3137 22 20Z" fill="#666666"/>
  <path d="M38 14H41L47 21.5V14H50V26H47L41 18.5V26H38V14Z" fill="#666666"/>
  <path d="M58 17H54V14H65V17H61V26H58V17Z" fill="#666666"/>
  <path d="M66 14H69L75 21.5V14H78V26H75L69 18.5V26H66V14Z" fill="#666666"/>
  <path d="M87 14H90V20H96V14H99V26H96V22H90V26H87V14Z" fill="#666666"/>
</svg>

