<svg width="120" height="40" viewBox="0 0 120 40" fill="none" xmlns="http://www.w3.org/2000/svg">
  <path d="M20 8H100C104.418 8 108 11.5817 108 16V24C108 28.4183 104.418 32 100 32H20C15.5817 32 12 28.4183 12 24V16C12 11.5817 15.5817 8 20 8Z" fill="#F5F5F5"/>
  <path d="M20 14H31V17H23V19H29V21H23V23H31V26H20V14Z" fill="#666666"/>
  <path d="M32 14H35V23H41V26H32V14Z" fill="#666666"/>
  <path d="M42 14H45V23H51V26H42V14Z" fill="#666666"/>
  <path d="M52 14H55V26H52V14Z" fill="#666666"/>
  <path d="M60 14H63L69 26H66L64.5 23H58.5L57 26H54L60 14ZM63.5 20L61.5 16.5L59.5 20H63.5Z" fill="#666666"/>
  <path d="M70 14H73V26H70V14Z" fill="#666666"/>
  <path d="M82 14H85V20H91V14H94V26H91V22H85V26H82V14Z" fill="#666666"/>
</svg>

