<svg width="400" height="300" viewBox="0 0 400 300" fill="none" xmlns="http://www.w3.org/2000/svg">
  <path opacity="0.1" d="M50 50H350C361.046 50 370 58.9543 370 70V230C370 241.046 361.046 250 350 250H50C38.9543 250 30 241.046 30 230V70C30 58.9543 38.9543 50 50 50Z" fill="#5B4EFF"/>
  <rect x="60" y="80" width="280" height="40" rx="8" fill="white"/>
  <rect x="80" y="95" width="160" height="10" rx="5" fill="#5B4EFF" fill-opacity="0.3"/>
  <rect x="60" y="130" width="280" height="80" rx="8" fill="white"/>
  <rect x="80" y="150" width="240" height="10" rx="5" fill="#5B4EFF" fill-opacity="0.2"/>
  <rect x="80" y="170" width="180" height="10" rx="5" fill="#5B4EFF" fill-opacity="0.2"/>
  <rect x="60" y="220" width="120" height="40" rx="8" fill="#5B4EFF"/>
  <rect x="85" y="235" width="70" height="10" rx="5" fill="white" fill-opacity="0.8"/>
  <rect x="190" y="220" width="150" height="40" rx="8" fill="white"/>
  <rect x="230" y="235" width="70" height="10" rx="5" fill="#5B4EFF" fill-opacity="0.6"/>
  <circle cx="320" cy="90" r="30" fill="#00C8B2" fill-opacity="0.2"/>
  <path d="M320 80V100M310 90H330" stroke="#00C8B2" stroke-width="4" stroke-linecap="round"/>
  <circle cx="80" cy="190" r="20" fill="#5B4EFF" fill-opacity="0.2"/>
  <path d="M80 183L80 197M73 190H87" stroke="#5B4EFF" stroke-width="3" stroke-linecap="round"/>
</svg>

