<svg width="120" height="120" viewBox="0 0 120 120" fill="none" xmlns="http://www.w3.org/2000/svg">
  <rect width="120" height="120" rx="12" fill="white" fill-opacity="0.9"/>
  <rect x="12" y="12" width="96" height="20" rx="6" fill="#F5F5F5"/>
  <rect x="20" y="19" width="60" height="6" rx="3" fill="#5B4EFF" fill-opacity="0.3"/>
  <rect x="12" y="40" width="96" height="32" rx="6" fill="#F5F5F5"/>
  <rect x="20" y="48" width="80" height="6" rx="3" fill="#5B4EFF" fill-opacity="0.2"/>
  <rect x="20" y="60" width="60" height="6" rx="3" fill="#5B4EFF" fill-opacity="0.2"/>
  <rect x="12" y="80" width="40" height="28" rx="6" fill="#00C8B2" fill-opacity="0.1"/>
  <path d="M32 94L36 98L44 90" stroke="#00C8B2" stroke-width="2" stroke-linecap="round" stroke-linejoin="round"/>
  <rect x="60" y="80" width="48" height="28" rx="6" fill="#5B4EFF" fill-opacity="0.1"/>
  <path d="M84 94m-6 0a6 6 0 1 0 12 0a6 6 0 1 0 -12 0" stroke="#5B4EFF" stroke-width="2"/>
</svg>

